<?xml version="1.0" encoding="UTF-8" standalone="no"?>
<!DOCTYPE svg PUBLIC "-//W3C//DTD SVG 1.1//EN" "http://www.w3.org/Graphics/SVG/1.1/DTD/svg11.dtd">
<svg xmlns="http://www.w3.org/2000/svg" viewBox="0 9.470000267028809 147.49000549316406 36.37999725341797" data-asc="0.9052734375" width="128" height="128">
	<defs/>
	<g fill="#FFFFFF">
		<g transform="translate(0, 0)">
			<path d="M0 45.26L0 9.47L4.39 9.47L4.39 45.26L0 45.26ZM11.23 14.53L11.23 9.47L15.63 9.47L15.63 14.53L11.23 14.53M11.23 45.26L11.23 19.34L15.63 19.34L15.63 45.26L11.23 45.26ZM22.27 45.26L22.27 19.34L26.22 19.34L26.22 23.27Q27.73 20.51 29.02 19.63Q30.30 18.75 31.84 18.75Q34.06 18.75 36.35 20.17L34.84 24.24Q33.23 23.29 31.62 23.29Q30.18 23.29 29.03 24.16Q27.88 25.02 27.39 26.56Q26.66 28.91 26.66 31.69L26.66 45.26L22.27 45.26ZM38.99 14.53L38.99 9.47L43.38 9.47L43.38 14.53L38.99 14.53M38.99 45.26L38.99 19.34L43.38 19.34L43.38 45.26L38.99 45.26ZM50.07 45.26L50.07 9.47L54.47 9.47L54.47 22.31Q57.54 18.75 62.23 18.75Q65.11 18.75 67.24 19.89Q69.36 21.02 70.28 23.02Q71.19 25.02 71.19 28.83L71.19 45.26L66.80 45.26L66.80 28.83Q66.80 25.54 65.37 24.04Q63.94 22.53 61.33 22.53Q59.38 22.53 57.65 23.55Q55.93 24.56 55.20 26.29Q54.47 28.03 54.47 31.08L54.47 45.26L50.07 45.26ZM77.91 14.53L77.91 9.47L82.30 9.47L82.30 14.53L77.91 14.53M77.91 45.26L77.91 19.34L82.30 19.34L82.30 45.26L77.91 45.26ZM93.77 45.26L85.84 19.34L90.38 19.34L94.51 34.30L96.04 39.87Q96.14 39.45 97.39 34.52L101.51 19.34L106.03 19.34L109.91 34.38L111.21 39.33L112.70 34.33L117.14 19.34L121.41 19.34L113.31 45.26L108.74 45.26L104.61 29.74L103.61 25.32L98.36 45.26L93.77 45.26ZM142.02 42.07Q139.58 44.14 137.32 45.00Q135.06 45.85 132.47 45.85Q128.20 45.85 125.90 43.76Q123.61 41.67 123.61 38.43Q123.61 36.52 124.48 34.95Q125.34 33.37 126.75 32.42Q128.15 31.47 129.91 30.98Q131.20 30.64 133.81 30.32Q139.14 29.69 141.65 28.81Q141.67 27.91 141.67 27.66Q141.67 24.98 140.43 23.88Q138.75 22.39 135.42 22.39Q132.32 22.39 130.85 23.47Q129.37 24.56 128.66 27.32L124.37 26.73Q124.95 23.97 126.29 22.28Q127.64 20.58 130.18 19.67Q132.71 18.75 136.06 18.75Q139.38 18.75 141.46 19.53Q143.53 20.31 144.51 21.50Q145.48 22.68 145.87 24.49Q146.09 25.61 146.09 28.54L146.09 34.40Q146.09 40.53 146.37 42.15Q146.66 43.77 147.49 45.26L142.90 45.26Q142.21 43.90 142.02 42.07M141.65 32.25Q139.26 33.23 134.47 33.91Q131.76 34.30 130.64 34.79Q129.52 35.28 128.91 36.22Q128.30 37.16 128.30 38.31Q128.30 40.06 129.63 41.24Q130.96 42.41 133.52 42.41Q136.06 42.41 138.04 41.30Q140.01 40.19 140.94 38.26Q141.65 36.77 141.65 33.86L141.65 32.25Z"/>
		</g>
	</g>
</svg>